<svg width="48" height="48" viewBox="0 0 48 48" fill="none" xmlns="http://www.w3.org/2000/svg">
<g filter="url(#filter0_dd_202_95)">
<path d="M15.8743 0.50961H16.3743V0.5H32.2791C38.2437 0.5 43.1261 5.48469 43.1261 11.612V28.386C43.1261 34.5136 38.2434 39.498 32.2885 39.498H15.8743C9.90839 39.498 5.01786 34.5216 5.01786 28.4052V11.6216C5.01786 5.49485 9.90919 0.50961 15.8743 0.50961ZM7.02619 11.6303V11.6312V28.4149C7.02619 33.401 10.9537 37.4316 15.8743 37.4316H32.2885C37.1917 37.4316 41.1178 33.3995 41.1178 28.3956V11.6216C41.1178 6.6174 37.1913 2.58565 32.2791 2.58565H15.8743C10.9615 2.58565 7.03611 6.61773 7.02619 11.6303ZM35.1105 7.6997C35.1105 7.10977 35.5646 6.66168 36.1147 6.66168C36.6648 6.66168 37.1189 7.10977 37.1189 7.6997C37.1189 8.28963 36.6648 8.73772 36.1147 8.73772C35.5646 8.73772 35.1105 8.28963 35.1105 7.6997ZM14.0522 20.0038C14.0522 14.3481 18.5769 9.73772 24.0814 9.73772C29.5858 9.73772 34.1105 14.3481 34.1105 20.0038C34.1105 25.6596 29.5858 30.2699 24.0814 30.2699C18.5769 30.2699 14.0522 25.6596 14.0522 20.0038ZM32.1022 20.0038C32.1022 15.4702 28.542 11.8137 24.0814 11.8137C19.6208 11.8137 16.0606 15.4702 16.0606 20.0038C16.0606 24.5374 19.6208 28.1939 24.0814 28.1939C28.542 28.1939 32.1022 24.5374 32.1022 20.0038Z" fill="#070707" stroke="#070707"/>
</g>
<defs>
<filter id="filter0_dd_202_95" x="0.51786" y="0" width="47.1083" height="47.998" filterUnits="userSpaceOnUse" color-interpolation-filters="sRGB">
<feFlood flood-opacity="0" result="BackgroundImageFix"/>
<feColorMatrix in="SourceAlpha" type="matrix" values="0 0 0 0 0 0 0 0 0 0 0 0 0 0 0 0 0 0 127 0" result="hardAlpha"/>
<feOffset dy="4"/>
<feGaussianBlur stdDeviation="2"/>
<feComposite in2="hardAlpha" operator="out"/>
<feColorMatrix type="matrix" values="0 0 0 0 0 0 0 0 0 0 0 0 0 0 0 0 0 0 0.25 0"/>
<feBlend mode="normal" in2="BackgroundImageFix" result="effect1_dropShadow_202_95"/>
<feColorMatrix in="SourceAlpha" type="matrix" values="0 0 0 0 0 0 0 0 0 0 0 0 0 0 0 0 0 0 127 0" result="hardAlpha"/>
<feOffset dy="4"/>
<feGaussianBlur stdDeviation="2"/>
<feComposite in2="hardAlpha" operator="out"/>
<feColorMatrix type="matrix" values="0 0 0 0 0 0 0 0 0 0 0 0 0 0 0 0 0 0 0.25 0"/>
<feBlend mode="normal" in2="effect1_dropShadow_202_95" result="effect2_dropShadow_202_95"/>
<feBlend mode="normal" in="SourceGraphic" in2="effect2_dropShadow_202_95" result="shape"/>
</filter>
</defs>
</svg>
